<svg width="14" height="13" viewBox="0 0 14 13" fill="none" xmlns="http://www.w3.org/2000/svg">
<path d="M7.0625 3.60547C8.78516 3.60547 10.207 5.02734 10.207 6.75C10.207 8.5 8.78516 9.89453 7.0625 9.89453C5.3125 9.89453 3.91797 8.5 3.91797 6.75C3.91797 5.02734 5.3125 3.60547 7.0625 3.60547ZM7.0625 8.80078C8.18359 8.80078 9.08594 7.89844 9.08594 6.75C9.08594 5.62891 8.18359 4.72656 7.0625 4.72656C5.91406 4.72656 5.01172 5.62891 5.01172 6.75C5.01172 7.89844 5.94141 8.80078 7.0625 8.80078ZM11.0547 3.49609C11.0547 3.90625 10.7266 4.23438 10.3164 4.23438C9.90625 4.23438 9.57812 3.90625 9.57812 3.49609C9.57812 3.08594 9.90625 2.75781 10.3164 2.75781C10.7266 2.75781 11.0547 3.08594 11.0547 3.49609ZM13.1328 4.23438C13.1875 5.24609 13.1875 8.28125 13.1328 9.29297C13.0781 10.2773 12.8594 11.125 12.1484 11.8633C11.4375 12.5742 10.5625 12.793 9.57812 12.8477C8.56641 12.9023 5.53125 12.9023 4.51953 12.8477C3.53516 12.793 2.6875 12.5742 1.94922 11.8633C1.23828 11.125 1.01953 10.2773 0.964844 9.29297C0.910156 8.28125 0.910156 5.24609 0.964844 4.23438C1.01953 3.25 1.23828 2.375 1.94922 1.66406C2.6875 0.953125 3.53516 0.734375 4.51953 0.679688C5.53125 0.625 8.56641 0.625 9.57812 0.679688C10.5625 0.734375 11.4375 0.953125 12.1484 1.66406C12.8594 2.375 13.0781 3.25 13.1328 4.23438ZM11.8203 10.3594C12.1484 9.56641 12.0664 7.65234 12.0664 6.75C12.0664 5.875 12.1484 3.96094 11.8203 3.14062C11.6016 2.62109 11.1914 2.18359 10.6719 1.99219C9.85156 1.66406 7.9375 1.74609 7.0625 1.74609C6.16016 1.74609 4.24609 1.66406 3.45312 1.99219C2.90625 2.21094 2.49609 2.62109 2.27734 3.14062C1.94922 3.96094 2.03125 5.875 2.03125 6.75C2.03125 7.65234 1.94922 9.56641 2.27734 10.3594C2.49609 10.9062 2.90625 11.3164 3.45312 11.5352C4.24609 11.8633 6.16016 11.7812 7.0625 11.7812C7.9375 11.7812 9.85156 11.8633 10.6719 11.5352C11.1914 11.3164 11.6289 10.9062 11.8203 10.3594Z" fill="white"/>
</svg>
