<svg width="16" height="11" viewBox="0 0 16 11" fill="none" xmlns="http://www.w3.org/2000/svg">
<path d="M15.168 2.16797C15.4961 3.31641 15.4961 5.77734 15.4961 5.77734C15.4961 5.77734 15.4961 8.21094 15.168 9.38672C15.0039 10.043 14.4844 10.5352 13.8555 10.6992C12.6797 11 8.03125 11 8.03125 11C8.03125 11 3.35547 11 2.17969 10.6992C1.55078 10.5352 1.03125 10.043 0.867188 9.38672C0.539062 8.21094 0.539062 5.77734 0.539062 5.77734C0.539062 5.77734 0.539062 3.31641 0.867188 2.16797C1.03125 1.51172 1.55078 0.992188 2.17969 0.828125C3.35547 0.5 8.03125 0.5 8.03125 0.5C8.03125 0.5 12.6797 0.5 13.8555 0.828125C14.4844 0.992188 15.0039 1.51172 15.168 2.16797ZM6.5 7.99219L10.3828 5.77734L6.5 3.5625V7.99219Z" fill="white"/>
</svg>
