<svg width="24" height="24" viewBox="0 0 24 24" fill="none" xmlns="http://www.w3.org/2000/svg">
<path d="M18.9375 5.625C18.9375 5.83125 19.1063 6 19.3125 6C19.5187 6 19.6875 5.83125 19.6875 5.625C19.6875 4.695 20.445 3.9375 21.375 3.9375C21.5813 3.9375 21.75 3.76875 21.75 3.5625C21.75 3.35625 21.5813 3.1875 21.375 3.1875C20.445 3.1875 19.6875 2.43 19.6875 1.5C19.6875 1.29375 19.5187 1.125 19.3125 1.125C19.1063 1.125 18.9375 1.29375 18.9375 1.5C18.9375 2.43 18.18 3.1875 17.25 3.1875C17.0437 3.1875 16.875 3.35625 16.875 3.5625C16.875 3.76875 17.0437 3.9375 17.25 3.9375C18.18 3.9375 18.9375 4.695 18.9375 5.625Z" fill="#F2CD5B"/>
<path d="M6.375 18C5.54625 18 4.875 17.3288 4.875 16.5C4.875 16.2937 4.70625 16.125 4.5 16.125C4.29375 16.125 4.125 16.2937 4.125 16.5C4.125 17.3288 3.45375 18 2.625 18C2.41875 18 2.25 18.1688 2.25 18.375C2.25 18.5812 2.41875 18.75 2.625 18.75C3.45375 18.75 4.125 19.4212 4.125 20.25C4.125 20.4563 4.29375 20.625 4.5 20.625C4.70625 20.625 4.875 20.4563 4.875 20.25C4.875 19.4212 5.54625 18.75 6.375 18.75C6.58125 18.75 6.75 18.5812 6.75 18.375C6.75 18.1688 6.58125 18 6.375 18Z" fill="#F2CD5B"/>
<path d="M21.375 17.625C20.7562 17.625 20.25 17.1187 20.25 16.5C20.25 16.2937 20.0812 16.125 19.875 16.125C19.6688 16.125 19.5 16.2937 19.5 16.5C19.5 17.1187 18.9937 17.625 18.375 17.625C18.1687 17.625 18 17.7938 18 18C18 18.2062 18.1687 18.375 18.375 18.375C18.9937 18.375 19.5 18.8812 19.5 19.5C19.5 19.7062 19.6688 19.875 19.875 19.875C20.0812 19.875 20.25 19.7062 20.25 19.5C20.25 18.8812 20.7562 18.375 21.375 18.375C21.5812 18.375 21.75 18.2062 21.75 18C21.75 17.7938 21.5812 17.625 21.375 17.625Z" fill="#F2CD5B"/>
<path d="M15.75 10.875H8.25L12 2.625L15.75 10.875Z" fill="#F2CD5B"/>
<path d="M12 2.625L8.25 10.875L2.625 9L12 2.625Z" fill="#F28705"/>
<path d="M21.375 9L15.75 10.875L12 2.625L21.375 9Z" fill="#F28705"/>
<path d="M21.375 9L12 22.875L15.75 10.875L21.375 9Z" fill="#F27507"/>
<path d="M15.75 10.875L12 22.875L8.25 10.875H15.75Z" fill="#F28705"/>
<path d="M12 22.875L2.625 9L8.25 10.875L12 22.875Z" fill="#F27507"/>
</svg>
